<svg width="20" height="20" fill="none" xmlns="http://www.w3.org/2000/svg"><path d="M18.406 2.97v2.887a.837.837 0 01-.837.837h-2.928a.837.837 0 01-.837-.962.879.879 0 01.88-.711h.961A7.53 7.53 0 002.551 9.287a.837.837 0 01-.837.753.838.838 0 01-.837-.92 9.2 9.2 0 0115.856-5.397v-.795a.836.836 0 01.962-.837.879.879 0 01.711.879zM1.672 17.11v-2.887a.837.837 0 01.837-.837h2.928a.836.836 0 01.837.962.879.879 0 01-.879.71h-.962a7.53 7.53 0 0013.094-4.266.837.837 0 01.837-.752.838.838 0 01.837.92 9.2 9.2 0 01-15.855 5.4v.795a.837.837 0 01-.962.837.88.88 0 01-.712-.882z" fill="#F36553"/><path d="M10.331 9.202c-1.464-.293-1.464-.544-1.464-.753 0-.21.084-.251.21-.377.23-.124.49-.182.752-.167.486-.004.964.126 1.381.377a.754.754 0 001.13-.21.794.794 0 00-.167-1.17 3.807 3.807 0 00-1.3-.5V5.44a.837.837 0 10-1.673 0v.92a2.253 2.253 0 00-2.092 2.175c0 1.13 1.381 2.05 2.72 2.3 1.337.25 1.38.544 1.38.753 0 .209-.46.586-1.046.586a2.8 2.8 0 01-1.715-.544.836.836 0 00-1.17.25.753.753 0 00.125 1.089 4.56 4.56 0 001.8.753v.92a.837.837 0 101.673 0v-.92a2.637 2.637 0 001.255-.544 2.05 2.05 0 00.837-1.673c0-1.548-1.422-2.05-2.636-2.303z" fill="#F36553"/></svg>