<svg width="16" height="19" fill="none" xmlns="http://www.w3.org/2000/svg"><path d="M4.625 5.797h3.313a.828.828 0 100-1.656H4.625a.828.828 0 000 1.656zm0 3.313h3.313a.828.828 0 000-1.657H4.625a.828.828 0 000 1.656zm0 3.312h3.313a.828.828 0 100-1.656H4.625a.828.828 0 100 1.656zm5.797-6.625h.828a.828.828 0 000-1.656h-.828a.828.828 0 000 1.656zm0 3.313h.828a.828.828 0 000-1.657h-.828a.828.828 0 000 1.656zm0 3.312h.828a.828.828 0 100-1.656h-.828a.828.828 0 100 1.656z" fill="#F36553"/><path d="M14.977.828H.898a.828.828 0 00-.828.828v16.15a.414.414 0 00.414.413.456.456 0 00.29-.124l2.61-1.9 1.78 1.9a.414.414 0 00.58 0l2.195-1.9 2.195 1.9a.414.414 0 00.58 0l1.781-1.9 2.61 1.9a.456.456 0 00.29.124.414.414 0 00.413-.414V1.656a.828.828 0 00-.83-.828zm-.828 14.534l-.663-.5-1.2-.87-.994 1.077-.952.994-1.326-1.115-1.077-.952-1.077.952-1.325 1.118-.952-.994-.993-1.076-1.2.87-.663.5V2.484H14.15v12.878z" fill="#F36553"/></svg>