<svg width="18" height="18" fill="none" xmlns="http://www.w3.org/2000/svg"><path d="M15.51 6.796l.375-.083 1.376-.167a3.13 3.13 0 00.083-.875 3.13 3.13 0 00-.083-.875l-1.376-.167-.375-.085-.25-.584.208-.334.834-1.126a5.545 5.545 0 00-1.21-1.209l-1.125.834-.334.208-.584-.25-.083-.375L12.8.334a3.127 3.127 0 00-.875-.079 3.127 3.127 0 00-.875.083l-.167 1.376-.083.375-.584.25-.334-.208-1.126-.834a5.572 5.572 0 00-1.21 1.209l.835 1.126.208.334-.25.584-.375.083-1.376.167a3.127 3.127 0 00-.078.87c-.014.294.014.589.083.875l1.376.167.375.083.25.584-.208.334-.834 1.126c.338.463.746.871 1.209 1.209l1.126-.834.334-.208.584.25.083.375.167 1.376a3.1 3.1 0 00.875.083c.294.014.589-.014.875-.083l.167-1.376.079-.376.584-.25.334.208 1.126.834c.463-.338.87-.746 1.209-1.209l-.834-1.126-.208-.334.248-.582zm-3.585.542a1.668 1.668 0 110-3.336 1.668 1.668 0 010 3.336zM5.668 13.59v2.5H2.336v-2.5h3.332zm.836-1.667h-5a.833.833 0 00-.836.834v4.166a.834.834 0 00.834.834h5a.835.835 0 00.836-.834v-4.166a.834.834 0 00-.834-.834z" fill="#F36553"/><path d="M6.504 1.918a.834.834 0 00-.836-.834H1.502a.834.834 0 00-.834.834v7.5a.834.834 0 00.834.834h4.166a.834.834 0 000-1.668H2.336V2.752h3.332a.834.834 0 00.836-.834zm7.502 10.839v3.335h-3.332v-3.335a.834.834 0 00-1.668 0v4.166a.834.834 0 00.834.834h5a.835.835 0 00.836-.834v-4.166a.834.834 0 00-1.67 0z" fill="#F36553"/></svg>