<svg width="18" height="19" fill="none" xmlns="http://www.w3.org/2000/svg"><path d="M16.81 13.38a1.94 1.94 0 00-1.688-.465l-4.178.717a1.984 1.984 0 00-.591-1.393L7.356 9.285H1.11a.844.844 0 100 1.688h5.57l2.49 2.49a.338.338 0 010 .464.38.38 0 01-.505 0L7.188 12.45a.852.852 0 10-1.182 1.224l1.477 1.435a1.9 1.9 0 001.435.591 2.41 2.41 0 00.76-.127l5.74-1.013a.421.421 0 01.338.084.464.464 0 01.127.3.422.422 0 01-.338.422l-7.85 1.435-4.6-3.756H1.11a.844.844 0 100 1.688h1.393l4.685 3.841 8.652-1.562a2.068 2.068 0 001.73-2.068 1.942 1.942 0 00-.76-1.565z" fill="#F36553"/><path d="M13.476 8.483a2.828 2.828 0 01-1.73-.549.844.844 0 00-1.182.253.76.76 0 00.127 1.1c.543.382 1.162.64 1.815.76v.93a.844.844 0 101.688 0v-.933a2.66 2.66 0 001.266-.549 2.067 2.067 0 00.848-1.687c0-1.562-1.435-2.068-2.659-2.32-1.224-.254-1.477-.55-1.477-.76 0-.212.084-.254.211-.38.233-.126.496-.185.76-.17.49-.004.973.128 1.393.38a.76.76 0 001.14-.21.8.8 0 00-.169-1.183A3.842 3.842 0 0014.2 2.66v-.97a.844.844 0 00-1.688 0v.928a2.273 2.273 0 00-2.11 2.195c0 1.14 1.393 2.068 2.743 2.321 1.35.253 1.393.55 1.393.76 0 .211-.47.59-1.06.59z" fill="#F36553"/></svg>