<svg width="16" height="20" fill="none" xmlns="http://www.w3.org/2000/svg"><path d="M14.92 7.614h-1.693V5.5A4.652 4.652 0 008.574.846h-.846A4.653 4.653 0 003.075 5.5v2.115H1.383a.846.846 0 00-.846.846v10.152a.846.846 0 00.846.846H14.92a.846.846 0 00.846-.846V8.46a.846.846 0 00-.846-.846zM4.766 5.5a2.961 2.961 0 012.961-2.96h.846a2.961 2.961 0 012.963 2.96v2.115h-6.77V5.5zm9.306 12.267H2.23v-8.46h11.844v8.46z" fill="#F36553"/><path d="M9.802 12.648a1.692 1.692 0 10-2.538 1.481v1.058a.846.846 0 001.692 0v-1.059a1.693 1.693 0 00.846-1.48z" fill="#F36553"/></svg>