<svg width="82" height="84" fill="none" xmlns="http://www.w3.org/2000/svg"><g filter="url(#filter0_d)"><path d="M41 75c19.33 0 35-15.67 35-35S60.33 5 41 5 6 20.67 6 40s15.67 35 35 35z" fill="#F36553"/></g><path d="M41 79.5c21.815 0 39.5-17.685 39.5-39.5S62.815.5 41 .5 1.5 18.185 1.5 40 19.185 79.5 41 79.5z" stroke="#DA251D"/><path d="M57.828 26.648v5.644a1.636 1.636 0 01-1.636 1.636h-5.725a1.638 1.638 0 01-1.636-1.881 1.718 1.718 0 011.718-1.39h1.881a14.723 14.723 0 00-25.6 8.342 1.636 1.636 0 01-1.637 1.472 1.638 1.638 0 01-1.636-1.8 17.994 17.994 0 0131-10.551v-1.553a1.635 1.635 0 011.881-1.636 1.718 1.718 0 011.39 1.718v-.001zM25.112 54.294V48.65a1.636 1.636 0 011.636-1.636h5.725a1.637 1.637 0 011.639 1.882 1.718 1.718 0 01-1.718 1.39h-1.882a14.723 14.723 0 0025.6-8.343 1.636 1.636 0 011.635-1.472 1.638 1.638 0 011.636 1.8 17.994 17.994 0 01-31 10.55v1.55a1.636 1.636 0 01-1.881 1.64 1.718 1.718 0 01-1.39-1.717z" fill="#fff"/><path d="M42.042 38.838c-2.863-.573-2.863-1.063-2.863-1.472 0-.41.164-.491.41-.736.45-.243.96-.356 1.471-.327a5.154 5.154 0 012.7.736 1.471 1.471 0 002.208-.41 1.552 1.552 0 00-.327-2.29 7.443 7.443 0 00-2.536-.981v-1.884a1.636 1.636 0 10-3.272 0v1.8c-2.453.408-4.085 2.044-4.085 4.252 0 2.208 2.7 4.008 5.316 4.5 2.616.492 2.7 1.063 2.7 1.472 0 .409-.9 1.145-2.045 1.145a5.48 5.48 0 01-3.353-1.063 1.636 1.636 0 00-2.29.49 1.472 1.472 0 00.245 2.128 8.915 8.915 0 003.517 1.472v1.8a1.636 1.636 0 003.272 0v-1.8a5.153 5.153 0 002.454-1.063 4.009 4.009 0 001.631-3.27c0-3.03-2.78-4.011-5.153-4.5z" fill="#fff"/><defs><filter id="filter0_d" x="0" y="2" width="82" height="82" filterUnits="userSpaceOnUse" color-interpolation-filters="sRGB"><feFlood flood-opacity="0" result="BackgroundImageFix"/><feColorMatrix in="SourceAlpha" values="0 0 0 0 0 0 0 0 0 0 0 0 0 0 0 0 0 0 127 0" result="hardAlpha"/><feOffset dy="3"/><feGaussianBlur stdDeviation="3"/><feColorMatrix values="0 0 0 0 0 0 0 0 0 0 0 0 0 0 0 0 0 0 0.161 0"/><feBlend in2="BackgroundImageFix" result="effect1_dropShadow"/><feBlend in="SourceGraphic" in2="effect1_dropShadow" result="shape"/></filter></defs></svg>