<svg width="27" height="26" fill="none" xmlns="http://www.w3.org/2000/svg"><path d="M25.192 4.011h-5.384V1.678A1.257 1.257 0 0018.79.422a1.2 1.2 0 00-1.377 1.2v2.39H9.039V1.677A1.256 1.256 0 008.021.422a1.2 1.2 0 00-1.376 1.2v2.39h-5.38a1.2 1.2 0 00-1.2 1.196v19.144a1.2 1.2 0 001.2 1.2h23.93a1.2 1.2 0 001.2-1.2V5.208a1.201 1.201 0 00-1.203-1.197zm-1.2 19.144H2.456V11.191h21.537l-.003 11.964zm0-14.358H2.456V6.405h21.537l-.003 2.392z" fill="#032E3F"/><path d="M7 13H6a2 2 0 00-2 2v1a2 2 0 002 2h1a2 2 0 002-2v-1a2 2 0 00-2-2zm14 0h-1a2 2 0 00-2 2v1a2 2 0 002 2h1a2 2 0 002-2v-1a2 2 0 00-2-2zm-7 0h-1a2 2 0 00-2 2v1a2 2 0 002 2h1a2 2 0 002-2v-1a2 2 0 00-2-2z" fill="#032E3F"/></svg>