<svg width="28" height="24" fill="none" xmlns="http://www.w3.org/2000/svg"><path d="M26.42 5.367h-1.305V1.451A1.306 1.306 0 0023.81.145H4.88A3.917 3.917 0 00.963 4.062v15.666a3.917 3.917 0 003.917 3.917h21.54a1.306 1.306 0 001.307-1.306V6.673a1.306 1.306 0 00-1.306-1.306zM4.88 2.756h17.624v2.611H4.944a1.371 1.371 0 01-1.37-1.11 1.306 1.306 0 011.306-1.5v-.001zm20.236 7.833h-7.834a1.306 1.306 0 00-1.306 1.306v5.222a1.306 1.306 0 001.306 1.306h7.833v2.611H4.88a1.306 1.306 0 01-1.306-1.306V7.978h21.54l.002 2.611zm-3.917 3.917a1.306 1.306 0 11-2.612 0 1.306 1.306 0 012.612 0z" fill="#032E3F"/></svg>