<svg width="27" height="32" fill="none" xmlns="http://www.w3.org/2000/svg"><path d="M21.71 6.417A11.46 11.46 0 00.152 10.786a11.173 11.173 0 004.942 10.456v9.1a1.432 1.432 0 002.22 1.218l4.226-3.295 4.226 3.295a1.432 1.432 0 002.22-1.218v-9.1a4.083 4.083 0 001.074-.86.645.645 0 000-1.073l-1.218-.86a.645.645 0 00-.859 0 8.595 8.595 0 01-14.038-7.02 8.738 8.738 0 018.38-8.236 8.6 8.6 0 017.45 3.94.716.716 0 00.573.358h1.72a.788.788 0 00.644-1.074h-.002zM7.96 22.675a11.46 11.46 0 007.161 0v4.727l-3.15-2.435a.645.645 0 00-.86 0L7.96 27.402v-4.727z" fill="#3D4252"/><path d="M16.34 10.355a4.226 4.226 0 00-1.29-2.077 4.965 4.965 0 10-7.018 7.019 4.87 4.87 0 007.019 0 4.226 4.226 0 001.289-2.077h2.865v2.65a1.433 1.433 0 002.865 0v-2.65h1.218v2.65a1.43 1.43 0 001.435 1.433c.37-.036.72-.186 1-.43a1.43 1.43 0 00.43-1v-4.085a1.432 1.432 0 00-1.43-1.433H16.34zm-6.3 2.937a2.149 2.149 0 113.008 0 2.078 2.078 0 01-3.008 0z" fill="#3D4252"/></svg>