<svg width="27" height="31" fill="none" xmlns="http://www.w3.org/2000/svg"><path d="M9.125 22.792v4.375H3.292v-4.375h5.833zm1.458-2.917h-8.75a1.458 1.458 0 00-1.458 1.458v7.292a1.458 1.458 0 001.458 1.458h8.75a1.458 1.458 0 001.458-1.458v-7.292a1.458 1.458 0 00-1.458-1.458zM9.125 3.834v10.208H3.292V3.834h5.833zM10.583.917h-8.75A1.458 1.458 0 00.375 2.375V15.5a1.458 1.458 0 001.458 1.458h8.75a1.458 1.458 0 001.458-1.458V2.375A1.458 1.458 0 0010.583.917zm13.124 2.917v4.375h-5.833V3.834h5.833zM25.165.917h-8.75a1.458 1.458 0 00-1.458 1.458v7.292a1.458 1.458 0 001.458 1.458h8.75a1.458 1.458 0 001.458-1.458V2.375A1.458 1.458 0 0025.165.917zm-1.458 16.042v10.208h-5.833V16.959h5.833zm1.458-2.917h-8.75a1.458 1.458 0 00-1.458 1.458v13.125a1.458 1.458 0 001.458 1.458h8.75a1.458 1.458 0 001.458-1.458V15.5a1.458 1.458 0 00-1.458-1.458z" fill="#F36553"/></svg>