<svg width="33" height="24" fill="none" xmlns="http://www.w3.org/2000/svg"><path d="M30.61.674H2.236A1.419 1.419 0 00.818 2.093v9.93a1.42 1.42 0 001.631 1.419 1.49 1.49 0 001.206-1.49V3.51H29.19v17.024h-7.093a1.419 1.419 0 00-1.419 1.63 1.49 1.49 0 001.49 1.209h8.441a1.419 1.419 0 001.42-1.42V2.094a1.42 1.42 0 00-1.42-1.42z" fill="#F36553"/><path d="M.818 17.697v4.256a1.49 1.49 0 001.56 1.419h13.9a1.49 1.49 0 001.56-1.42v-4.255A14.541 14.541 0 009.33 14.86a14.54 14.54 0 00-8.512 2.837zm14.186 2.837H3.655V19.26a11.064 11.064 0 0111.35 0v1.274zM19.26 9.185h7.092a1.419 1.419 0 100-2.837H19.26a1.42 1.42 0 100 2.837zm8.51 4.257a1.42 1.42 0 00-1.418-1.419H19.26a1.418 1.418 0 100 2.837h7.093a1.42 1.42 0 001.418-1.418zM13.586 9.186a4.256 4.256 0 10-8.513 0 4.256 4.256 0 008.513 0zm-5.674 0a1.419 1.419 0 112.84 0 1.419 1.419 0 01-2.84 0z" fill="#F36553"/></svg>