<svg width="31" height="27" fill="none" xmlns="http://www.w3.org/2000/svg"><path d="M29.496 6.255H28.03V1.86A1.465 1.465 0 0026.566.395H5.325A4.395 4.395 0 00.93 4.79v17.579a4.395 4.395 0 004.395 4.395h24.17a1.464 1.464 0 001.466-1.469V7.72a1.465 1.465 0 00-1.465-1.465zM5.325 3.325H25.1v2.93H5.398A1.538 1.538 0 013.86 5.01a1.465 1.465 0 011.465-1.685zm22.705 8.789h-8.79a1.465 1.465 0 00-1.465 1.465v5.86a1.465 1.465 0 001.465 1.465h8.79v2.93H5.325a1.465 1.465 0 01-1.465-1.465V9.185h24.17v2.929zm-4.395 4.395a1.465 1.465 0 11-2.932 0 1.465 1.465 0 012.933 0h-.001z" fill="#F36553"/></svg>