<svg width="24" height="27" fill="none" xmlns="http://www.w3.org/2000/svg"><path d="M7.03 7.775h5.014a1.254 1.254 0 000-2.507H7.03a1.254 1.254 0 100 2.507zm0 5.014h5.014a1.254 1.254 0 000-2.507H7.03a1.252 1.252 0 00-1.19 1.741 1.255 1.255 0 001.19.766zm0 5.015h5.014a1.254 1.254 0 000-2.507H7.03a1.256 1.256 0 00-1.19 1.741 1.253 1.253 0 001.19.766zm8.775-10.029h1.254a1.254 1.254 0 100-2.507h-1.254a1.253 1.253 0 100 2.507zm0 5.014h1.254a1.252 1.252 0 001.19-1.742 1.254 1.254 0 00-1.19-.765h-1.254a1.252 1.252 0 00-1.29 1.253 1.253 1.253 0 001.29 1.254zm0 5.015h1.254a1.254 1.254 0 100-2.507h-1.254a1.255 1.255 0 00-.91 2.152 1.253 1.253 0 00.91.355z" fill="#F36553"/><path d="M22.699.254H1.389A1.254 1.254 0 00.135 1.508v24.446a.627.627 0 00.627.627.689.689 0 00.439-.188L5.15 23.51l2.7 2.883a.627.627 0 00.877 0l3.322-2.883 3.322 2.883a.627.627 0 00.877 0l2.7-2.883 3.949 2.883c.119.113.275.18.439.188a.627.627 0 00.627-.627V1.508A1.255 1.255 0 0022.699.254zm-1.254 22l-1-.752-1.82-1.317-1.5 1.63-1.442 1.5-2.006-1.692-1.63-1.442-1.63 1.442-2.006 1.692-1.442-1.5-1.5-1.63-1.824 1.317-1 .752V2.76h18.8v19.493z" fill="#F36553"/></svg>